<?xml version="1.0" standalone="no"?>
<!DOCTYPE svg PUBLIC "-//W3C//DTD SVG 20010904//EN"
 "http://www.w3.org/TR/2001/REC-SVG-20010904/DTD/svg10.dtd">
<svg version="1.0" xmlns="http://www.w3.org/2000/svg"
 width="700.000000pt" height="700.000000pt" viewBox="0 0 700.000000 700.000000"
 preserveAspectRatio="xMidYMid meet">
<metadata>
Created by potrace 1.11, written by Peter Selinger 2001-2013
</metadata>
<g transform="translate(0.000000,700.000000) scale(0.100000,-0.100000)"
fill="#000000" stroke="none">
<path d="M3447 6144 c-1 -1 -54 -5 -116 -8 -128 -7 -147 -10 -276 -33 -422
-74 -802 -241 -1149 -503 -95 -72 -148 -122 -137 -133 11 -11 28 -2 78 43 156
145 494 341 744 434 97 36 293 95 339 102 14 2 45 9 70 14 250 56 675 62 940
15 317 -56 640 -175 882 -323 35 -21 74 -45 88 -53 40 -23 241 -173 295 -220
441 -385 747 -910 854 -1464 42 -214 50 -315 46 -560 -4 -217 -7 -262 -25
-360 -5 -27 -12 -65 -15 -83 -20 -120 -81 -330 -137 -471 -234 -593 -676
-1078 -1243 -1366 -194 -99 -430 -186 -595 -220 -83 -18 -182 -35 -225 -40
-27 -4 -61 -9 -75 -12 -14 -2 -119 -6 -235 -8 -264 -4 -385 7 -630 61 -288 63
-600 198 -865 375 -79 52 -226 164 -259 196 -14 15 -33 13 -38 -3 -5 -18 222
-187 422 -311 38 -24 210 -110 285 -143 160 -70 463 -159 599 -176 20 -2 47
-6 61 -9 126 -23 449 -35 585 -21 22 2 69 7 105 11 112 11 310 53 449 96 331
99 631 259 898 478 674 551 1034 1388 969 2251 -8 102 -42 336 -56 385 -5 17
-16 59 -25 95 -96 375 -300 759 -564 1060 -325 369 -732 636 -1187 779 -129
41 -316 84 -409 96 -27 4 -61 8 -74 10 -63 11 -366 26 -374 19z"/>
<path d="M1535 5275 c-228 -259 -401 -546 -514 -853 -40 -110 -95 -296 -106
-363 -3 -19 -8 -41 -10 -49 -2 -8 -7 -35 -10 -60 -4 -24 -8 -47 -10 -50 -2 -3
-6 -34 -9 -70 -3 -36 -9 -96 -12 -135 -12 -127 -6 -390 11 -515 2 -14 6 -43 9
-65 3 -22 12 -76 21 -120 9 -44 19 -93 21 -109 20 -111 116 -379 194 -541 44
-90 183 -332 199 -345 3 -3 24 -31 45 -63 66 -96 223 -277 241 -277 7 0 17 6
24 13 8 10 -6 39 -58 123 -134 215 -241 442 -322 684 -22 67 -42 129 -45 138
-28 112 -65 282 -70 319 -3 27 -8 51 -10 54 -2 3 -6 34 -10 70 -3 35 -8 67
-10 70 -7 12 -18 237 -18 364 0 193 10 329 39 520 17 106 58 290 85 380 17 55
33 107 35 115 18 76 139 361 207 490 50 94 168 289 179 296 12 7 -9 44 -25 44
-7 0 -39 -29 -71 -65z"/>
<path d="M1445 4196 c-13 -10 -15 -96 -13 -666 l3 -655 110 0 110 0 3 654 c1
450 -1 658 -8 665 -15 15 -186 16 -205 2z"/>
<path d="M2182 4191 c-23 -20 -407 -523 -423 -553 -7 -12 -13 -53 -15 -91 -4
-85 5 -103 118 -252 46 -60 128 -168 183 -240 154 -203 126 -185 277 -185 104
0 128 3 128 14 0 12 -158 221 -241 321 -10 11 -56 70 -103 130 -48 61 -94 119
-103 130 -32 38 -42 66 -32 93 8 20 85 122 206 272 152 188 273 348 270 360
-4 23 -240 24 -265 1z"/>
<path d="M5346 4198 c-13 -7 -16 -29 -16 -123 0 -63 -3 -116 -7 -116 -5 -1
-32 -3 -62 -5 -30 -2 -56 -6 -59 -9 -9 -9 -11 -160 -2 -174 4 -8 30 -14 64
-16 31 -1 58 -4 61 -6 2 -3 5 -141 5 -307 2 -306 7 -359 43 -427 52 -98 169
-151 342 -156 36 -1 69 1 73 5 12 13 11 175 -2 185 -6 4 -40 11 -76 13 -78 6
-127 29 -141 66 -15 38 -16 612 -1 621 6 4 57 6 112 6 82 0 103 2 110 15 10
18 8 165 -2 175 -4 4 -53 8 -110 9 -57 1 -109 5 -115 9 -9 6 -13 41 -13 117 0
76 -4 111 -12 117 -18 11 -172 12 -192 1z"/>
<path d="M2775 3954 c-158 -27 -251 -87 -304 -197 -35 -72 -49 -168 -27 -189
9 -10 39 -14 105 -13 50 1 93 4 96 7 3 3 8 25 11 49 8 65 33 101 89 129 45 23
62 25 170 25 131 0 178 -13 222 -63 32 -35 55 -123 36 -135 -5 -3 -37 -8 -73
-12 -36 -3 -72 -8 -80 -10 -8 -2 -44 -7 -80 -10 -36 -4 -76 -8 -90 -10 -14 -2
-45 -7 -70 -10 -246 -34 -372 -139 -373 -312 0 -39 7 -90 17 -120 37 -110 158
-200 296 -218 176 -24 335 10 466 99 43 29 50 25 60 -40 3 -22 8 -42 11 -46 2
-5 35 -8 73 -8 64 0 70 2 75 23 3 12 4 186 2 387 -3 335 -5 370 -24 427 -33
98 -88 165 -168 203 -99 48 -303 68 -440 44z m407 -606 c6 -38 -18 -126 -46
-168 -59 -89 -175 -137 -306 -127 -143 11 -220 85 -188 179 17 48 107 85 258
103 30 4 62 9 71 10 9 2 40 6 70 10 30 4 55 8 56 9 1 1 20 3 42 4 34 2 40 0
43 -20z"/>
<path d="M3886 3963 c-1 -1 -17 -5 -36 -8 -71 -11 -93 -18 -147 -41 -75 -34
-145 -106 -172 -180 -26 -67 -33 -160 -14 -172 15 -9 191 -8 200 1 3 4 8 26
10 49 7 62 38 107 92 132 38 17 66 21 161 21 122 0 170 -11 213 -48 31 -26 54
-80 53 -122 -1 -33 -13 -37 -151 -49 -38 -3 -81 -8 -94 -11 -13 -2 -47 -7 -75
-10 -50 -5 -80 -9 -141 -21 -164 -32 -284 -127 -300 -238 -4 -22 -7 -49 -9
-60 -5 -39 15 -125 40 -170 63 -114 197 -177 377 -178 136 -1 254 32 347 97
47 33 70 35 70 7 0 -9 5 -34 11 -55 l10 -38 72 3 72 3 0 390 c-1 376 -2 392
-23 449 -66 179 -194 247 -470 250 -51 1 -94 0 -96 -1z m366 -648 c-7 -105
-70 -192 -170 -237 -72 -32 -229 -32 -295 1 -46 22 -73 55 -77 96 -5 45 1 67
25 89 27 25 144 61 230 71 28 3 59 7 71 9 12 2 45 7 75 11 30 4 55 8 57 10 1
1 22 2 45 1 l42 -1 -3 -50z"/>
<path d="M4585 3947 c-13 -7 -15 -81 -15 -537 0 -376 3 -531 11 -536 17 -10
189 -8 200 3 6 6 11 150 13 354 3 381 6 409 63 465 39 39 83 53 184 57 41 2
80 6 87 11 8 5 12 35 12 91 0 101 -3 103 -105 98 -96 -5 -192 -30 -243 -64
-43 -29 -72 -29 -72 0 0 9 -6 27 -13 40 -10 21 -20 25 -60 26 -26 0 -54 -3
-62 -8z"/>
</g>
</svg>
