<?xml version="1.0" encoding="UTF-8"?> <svg xmlns="http://www.w3.org/2000/svg" id="Layer_1" data-name="Layer 1" viewBox="0 0 2648 2648"><defs><style>.cls-1{fill:#f4753c;}.cls-1,.cls-2{isolation:isolate;}.cls-2{fill:#6a6c7c;}</style></defs><path class="cls-1" d="M616.6,643.68c7.06-10.5-7.23-22.1-15.94-12.94C429.25,811.09,324,1055.22,324,1324s105.25,512.91,276.66,693.26c8.71,9.16,23-2.45,15.94-12.94C486.05,1810,409.84,1575.92,409.84,1324S486.05,838,616.6,643.68"></path><path class="cls-2" d="M1326.54,2324A995.1,995.1,0,0,1,668.7,2075.71a6.18,6.18,0,0,1,8.15-9.29,982.76,982.76,0,0,0,649.69,245.21c133,0,262-26.11,383.45-77.61a990,990,0,0,0,524.26-525.59c51.37-121.76,77.41-251.1,77.41-384.43s-26-262.67-77.41-384.43A990,990,0,0,0,1710,414c-121.44-51.5-250.45-77.61-383.45-77.61A982.74,982.74,0,0,0,676.85,581.58a6.18,6.18,0,1,1-8.14-9.29A995,995,0,0,1,1326.54,324c134.66,0,265.29,26.44,388.26,78.59a1002.2,1002.2,0,0,1,530.81,532.16C2297.62,1058,2324,1189,2324,1324s-26.38,266-78.39,389.25a1002.29,1002.29,0,0,1-530.81,532.16c-123,52.15-253.6,78.59-388.26,78.59"></path><path class="cls-2" d="M1099.14,1148c-63.26,0-110.82,15-141.34,44.73-24.52,23.84-37.48,57-37.48,95.76v2.88a11.53,11.53,0,0,0,11.51,11.55h60.82a11.53,11.53,0,0,0,11.51-11.55v-2.88c0-28.71,9.92-66.88,95.72-66.88,76.76,0,98.85,23.48,103.58,69.82a8.33,8.33,0,0,1-7.31,9.1l-117.29,13.91c-87.75,10.31-169,32.66-169,125.48,0,78.83,61.68,127.81,161,127.81,56.77,0,107.22-17.39,140.77-46.67a8.32,8.32,0,0,1,13.78,4.92l4.22,27.48a11.52,11.52,0,0,0,11.38,9.79h36.59a11.53,11.53,0,0,0,11.52-11.54V1329.47c0-47.4-4.09-96.06-33.76-131-29.34-34.5-79-50.57-156.23-50.57m95.95,224.72a8.33,8.33,0,0,1,9.45,8.27c0,83.4-62.9,113.12-121.77,113.12-32.13,0-86-7.13-86-54.94,0-25.63,14.54-40.72,94-52.09Z"></path><path class="cls-2" d="M1504.25,1148c-63.26,0-110.82,15-141.34,44.73-24.52,23.84-37.48,57-37.48,95.76v2.88a11.53,11.53,0,0,0,11.51,11.55h60.82a11.53,11.53,0,0,0,11.51-11.55v-2.88c0-28.71,9.93-66.88,95.73-66.88,76.75,0,98.83,23.48,103.57,69.82a8.33,8.33,0,0,1-7.31,9.1L1484,1314.39c-87.76,10.31-169,32.66-169,125.48,0,78.83,61.68,127.81,161,127.81,56.78,0,107.22-17.39,140.77-46.67a8.33,8.33,0,0,1,13.78,4.92l4.22,27.48a11.52,11.52,0,0,0,11.38,9.79h36.59a11.53,11.53,0,0,0,11.51-11.54V1329.47c0-47.4-4.09-96.06-33.76-131-29.33-34.5-79-50.57-156.22-50.57m95.94,224.72a8.33,8.33,0,0,1,9.46,8.27c0,83.4-62.9,113.12-121.77,113.12-32.13,0-86.05-7.13-86.05-54.94,0-25.63,14.54-40.72,94-52.09Z"></path><path class="cls-2" d="M1786.74,1181.21l-5.26-20.16a11.52,11.52,0,0,0-11.14-8.62h-30.4a11.52,11.52,0,0,0-11.51,11.54v387.69a11.53,11.53,0,0,0,11.51,11.54h61.56a11.53,11.53,0,0,0,11.51-11.54V1339.17c0-47.38,7.44-74.71,24.88-91.38s38.89-20.26,91.75-20.26h3.56a11.53,11.53,0,0,0,11.51-11.54v-52a11.53,11.53,0,0,0-11.51-11.54h-2.64c-66-1.08-106,11.69-130.27,32.92a8.31,8.31,0,0,1-13.55-4.14"></path><path class="cls-2" d="M616.39,1057H552.6a11.53,11.53,0,0,0-11.51,11.54v483.17a11.53,11.53,0,0,0,11.51,11.54h63.79a11.53,11.53,0,0,0,11.51-11.54V1068.49A11.53,11.53,0,0,0,616.39,1057"></path><path class="cls-2" d="M925.59,1549.83l-176.54-223.1a26.85,26.85,0,0,1,0-33.31l176.54-223.1a8.25,8.25,0,0,0-6.44-13.37h-80a22.59,22.59,0,0,0-18,9L672.78,1259.85a68.19,68.19,0,0,0-14,41.4v17.65a68.14,68.14,0,0,0,14,41.39l148.31,193.93a22.57,22.57,0,0,0,18,9h80a8.25,8.25,0,0,0,6.44-13.37"></path><path class="cls-2" d="M2193,1162.84a11.53,11.53,0,0,0-11.46-10.42h-73.1a8.33,8.33,0,0,1-8.32-8.33v-75.6a11.53,11.53,0,0,0-11.51-11.55h-60.07a11.53,11.53,0,0,0-11.51,11.55V1144a8.33,8.33,0,0,1-8.32,8.34h-32.25a11.54,11.54,0,0,0-11.52,11.55V1216a11.53,11.53,0,0,0,11.52,11.54h32.25a8.33,8.33,0,0,1,8.32,8.34v201c0,89.94,48,130,155.76,130,3.39,0,6.84-.08,10.35-.21a10.28,10.28,0,0,0,9.86-10.3v-55a10.29,10.29,0,0,0-10.29-10.31h-2.48c-72.46,0-77.87-21.46-77.87-54.2v-201a8.32,8.32,0,0,1,8.31-8.34h70.87a11.53,11.53,0,0,0,11.46-10.41c0-.37.06-.75.06-1.13v-52c0-.39,0-.76-.06-1.13"></path></svg>
