<?xml version="1.0" encoding="iso-8859-1"?>
<!-- Generator: Adobe Illustrator 19.0.0, SVG Export Plug-In . SVG Version: 6.00 Build 0)  -->
<svg version="1.1" id="Capa_1" xmlns="http://www.w3.org/2000/svg" xmlns:xlink="http://www.w3.org/1999/xlink" x="0px" y="0px"
	 viewBox="0 0 373.6 373.6" style="enable-background:new 0 0 373.6 373.6;" xml:space="preserve">
<g>
	<g>
		<path d="M343.7,0H29.9c-5.5,0-10.1,4.9-10.1,10.5v64.2c0,0.3,0,0.6,0.1,1c0,0.1,0.1,0.3,0.1,0.4c0,0.2,0.1,0.3,0.1,0.5
			c0,0.2,0.1,0.3,0.1,0.5c0,0.1,0.1,0.3,0.1,0.4c0.1,0.2,0.1,0.4,0.2,0.5c0,0.1,0.1,0.2,0.1,0.4c0.1,0.2,0.1,0.3,0.2,0.5
			c0.1,0.1,0.1,0.2,0.2,0.4c0.1,0.2,0.2,0.3,0.2,0.4c0.1,0.1,0.1,0.3,0.2,0.4c0.1,0.1,0.2,0.3,0.3,0.4c0.1,0.1,0.2,0.3,0.3,0.4
			c0.1,0.1,0.2,0.2,0.3,0.4c0.1,0.1,0.2,0.1,0.2,0.2l114.3,124.6v157.5c0,3.9,2.2,7.4,5.7,9.1c1.3,0.6,2.7,0.9,4.2,0.9
			c2.4,0,4.7-0.8,6.5-2.4l80.2-68.3c2.2-1.9,3.5-4.7,3.4-7.6v-89.2L351,81.4c0.1-0.1,0.1-0.1,0.2-0.2c0.1-0.1,0.2-0.2,0.3-0.4
			c0.1-0.1,0.2-0.2,0.3-0.4c0.1-0.2,0.2-0.3,0.3-0.4s0.2-0.3,0.2-0.4c0.1-0.1,0.2-0.3,0.3-0.4c0.1-0.1,0.1-0.2,0.2-0.4
			c0.1-0.2,0.2-0.3,0.2-0.5c0-0.1,0.1-0.2,0.1-0.4c0.1-0.2,0.1-0.3,0.2-0.5c0-0.1,0.1-0.3,0.1-0.4c0-0.2,0.1-0.3,0.1-0.5
			s0.1-0.3,0.1-0.5c0-0.1,0.1-0.3,0.1-0.4c0-0.3,0.1-0.6,0.1-1V10.4C353.8,4.9,349.3,0,343.7,0z M219.5,195.6
			c-1.7,1.8-2.7,4.1-2.7,6.6v88.4l-60,51.3V202.2c0-2.5-1-4.8-2.7-6.6L52.6,85H321L219.5,195.6z M333.8,65h-294V20h294V65z"/>
	</g>
</g>
<g>
</g>
<g>
</g>
<g>
</g>
<g>
</g>
<g>
</g>
<g>
</g>
<g>
</g>
<g>
</g>
<g>
</g>
<g>
</g>
<g>
</g>
<g>
</g>
<g>
</g>
<g>
</g>
<g>
</g>
</svg>
