<svg id="Capa_1" enable-background="new 0 0 510 510" height="512" viewBox="0 0 510 510" width="512" xmlns="http://www.w3.org/2000/svg"><path d="m255 0c-96.93 0-175.789 78.858-175.789 175.789 0 77.211 107.923 254.118 149.509 319.752 12.226 19.296 40.355 19.263 52.561 0 41.579-65.624 149.509-242.54 149.509-319.752-.001-96.931-78.86-175.789-175.79-175.789zm.938 479.485c-.449.706-1.429.706-1.877 0-36.983-58.368-144.851-235.393-144.851-303.695.001-80.389 65.402-145.79 145.79-145.79s145.789 65.4 145.789 145.789c0 68.321-107.856 245.309-144.851 303.696z"/><path d="m259.751 86.082c-40.266-2.782-72.199 29.385-72.199 67.284 0 8.284 6.716 15 15 15s15-6.716 15-15c0-21.593 18.18-38.862 40.135-37.355 18.792 1.296 33.371 15.876 34.667 34.667 1.091 15.818-7.497 30.264-21.878 36.802-18.513 8.418-30.476 26.748-30.476 46.699v14.322c0 8.284 6.716 15 15 15s15-6.716 15-15v-14.322c0-8.217 5.061-15.828 12.894-19.389 25.489-11.589 41.32-38.183 39.391-66.175-2.323-33.67-28.919-60.216-62.534-62.533z"/><path d="m253.404 299.277c-8.284 0-15 6.716-15 15v1.725c0 8.284 6.716 15 15 15s15-6.716 15-15v-1.725c0-8.284-6.715-15-15-15z"/></svg>